<svg xmlns="http://www.w3.org/2000/svg" viewBox="0 0 800 800" width="800" height="800">
    <defs>
        <!-- Outer dark forest fill -->
        <radialGradient id="outerGrad" cx="50%" cy="50%" r="55%">
            <stop offset="0%" stop-color="#2d5a1b" />
            <stop offset="100%" stop-color="#1a3a0d" />
        </radialGradient>

        <!-- Inner bright grass fill -->
        <linearGradient id="innerGrass" x1="0%" y1="0%" x2="100%" y2="100%">
            <stop offset="0%" stop-color="#6bbf3a" />
            <stop offset="50%" stop-color="#7dd444" />
            <stop offset="100%" stop-color="#5da832" />
        </linearGradient>

        <!-- Checkerboard grass pattern (subtle, like CoC) -->
        <pattern id="grassCheck" x="0" y="0" width="40" height="40" patternUnits="userSpaceOnUse">
            <rect width="40" height="40" fill="#7dd444" />
            <rect width="20" height="20" fill="#74cf3c" opacity="0.55" />
            <rect x="20" y="20" width="20" height="20" fill="#74cf3c" opacity="0.55" />
        </pattern>

        <!-- Border grass strip (transition between forest and inner field) -->
        <linearGradient id="borderGrass" x1="0%" y1="0%" x2="100%" y2="100%">
            <stop offset="0%" stop-color="#4e9626" />
            <stop offset="100%" stop-color="#3d7a1c" />
        </linearGradient>

        <!-- Drop shadow for inner field -->
        <filter id="fieldShadow" x="-5%" y="-5%" width="110%" height="110%">
            <feDropShadow dx="0" dy="3" stdDeviation="8" flood-color="rgba(0,0,0,0.35)" />
        </filter>

        <!-- Tree shapes reuse -->
        <g id="tree">
            <ellipse cx="0" cy="-14" rx="11" ry="10" fill="#2a6614" />
            <ellipse cx="0" cy="-20" rx="9" ry="9" fill="#35841c" />
            <ellipse cx="0" cy="-26" rx="7" ry="7" fill="#3e9920" />
            <rect x="-2" y="-4" width="4" height="10" fill="#6b4226" />
        </g>

        <g id="tree-sm">
            <ellipse cx="0" cy="-10" rx="8" ry="7" fill="#266012" />
            <ellipse cx="0" cy="-15" rx="6" ry="6" fill="#2e7519" />
            <ellipse cx="0" cy="-20" rx="5" ry="5" fill="#358a1c" />
            <rect x="-1.5" y="-3" width="3" height="8" fill="#5a3820" />
        </g>

        <g id="rock">
            <ellipse cx="0" cy="0" rx="8" ry="6" fill="#8a8a8a" />
            <ellipse cx="-2" cy="-1" rx="5" ry="4" fill="#a8a8a8" />
            <ellipse cx="3" cy="1" rx="4" ry="3" fill="#7a7a7a" />
        </g>

        <g id="bush">
            <ellipse cx="0" cy="0" rx="9" ry="7" fill="#2d7a18" />
            <ellipse cx="-4" cy="-2" rx="6" ry="5" fill="#38961f" />
            <ellipse cx="4" cy="-1" rx="6" ry="5" fill="#32881a" />
        </g>
    </defs>

    <!-- ── Outer forest background ── -->
    <rect width="800" height="800" fill="url(#outerGrad)" />

    <!-- Dense tree clusters in corners -->
    <!-- Top-left corner trees -->
    <g transform="translate(55,65)">
        <use href="#tree" transform="scale(1.4)" />
    </g>
    <g transform="translate(110,40)">
        <use href="#tree-sm" transform="scale(1.3)" />
    </g>
    <g transform="translate(30,120)">
        <use href="#tree" transform="scale(1.2)" />
    </g>
    <g transform="translate(80,105)">
        <use href="#tree-sm" transform="scale(1.1)" />
    </g>
    <g transform="translate(145,75)">
        <use href="#tree" transform="scale(1.2)" />
    </g>
    <g transform="translate(45,165)">
        <use href="#tree-sm" />
    </g>
    <g transform="translate(130,140)">
        <use href="#tree" transform="scale(1.1)" />
    </g>
    <g transform="translate(170,120)">
        <use href="#tree-sm" transform="scale(1.3)" />
    </g>

    <!-- Top-right corner trees -->
    <g transform="translate(720,55)">
        <use href="#tree" transform="scale(1.3)" />
    </g>
    <g transform="translate(670,40)">
        <use href="#tree-sm" transform="scale(1.2)" />
    </g>
    <g transform="translate(755,115)">
        <use href="#tree" transform="scale(1.1)" />
    </g>
    <g transform="translate(700,90)">
        <use href="#tree-sm" transform="scale(1.3)" />
    </g>
    <g transform="translate(640,75)">
        <use href="#tree" transform="scale(1.2)" />
    </g>
    <g transform="translate(740,155)">
        <use href="#tree-sm" />
    </g>
    <g transform="translate(680,130)">
        <use href="#tree" transform="scale(1.0)" />
    </g>
    <g transform="translate(610,110)">
        <use href="#tree-sm" transform="scale(1.2)" />
    </g>

    <!-- Bottom-left corner trees -->
    <g transform="translate(50,730)">
        <use href="#tree" transform="scale(1.3)" />
    </g>
    <g transform="translate(105,760)">
        <use href="#tree-sm" transform="scale(1.2)" />
    </g>
    <g transform="translate(35,675)">
        <use href="#tree" transform="scale(1.2)" />
    </g>
    <g transform="translate(90,700)">
        <use href="#tree-sm" transform="scale(1.1)" />
    </g>
    <g transform="translate(150,745)">
        <use href="#tree" transform="scale(1.1)" />
    </g>
    <g transform="translate(55,630)">
        <use href="#tree-sm" />
    </g>
    <g transform="translate(140,665)">
        <use href="#tree" transform="scale(1.0)" />
    </g>
    <g transform="translate(175,695)">
        <use href="#tree-sm" transform="scale(1.3)" />
    </g>

    <!-- Bottom-right corner trees -->
    <g transform="translate(740,730)">
        <use href="#tree" transform="scale(1.3)" />
    </g>
    <g transform="translate(685,760)">
        <use href="#tree-sm" transform="scale(1.2)" />
    </g>
    <g transform="translate(760,670)">
        <use href="#tree" transform="scale(1.2)" />
    </g>
    <g transform="translate(710,700)">
        <use href="#tree-sm" transform="scale(1.1)" />
    </g>
    <g transform="translate(650,745)">
        <use href="#tree" transform="scale(1.1)" />
    </g>
    <g transform="translate(755,630)">
        <use href="#tree-sm" />
    </g>
    <g transform="translate(635,680)">
        <use href="#tree" transform="scale(1.0)" />
    </g>
    <g transform="translate(600,720)">
        <use href="#tree-sm" transform="scale(1.2)" />
    </g>

    <!-- Top edge trees (scattered) -->
    <g transform="translate(240,45)">
        <use href="#tree" transform="scale(1.1)" />
    </g>
    <g transform="translate(290,30)">
        <use href="#tree-sm" transform="scale(1.2)" />
    </g>
    <g transform="translate(350,50)">
        <use href="#tree" transform="scale(1.0)" />
    </g>
    <g transform="translate(410,35)">
        <use href="#tree-sm" transform="scale(1.1)" />
    </g>
    <g transform="translate(465,48)">
        <use href="#tree" transform="scale(1.2)" />
    </g>
    <g transform="translate(520,32)">
        <use href="#tree-sm" transform="scale(1.0)" />
    </g>
    <g transform="translate(565,52)">
        <use href="#tree" transform="scale(1.1)" />
    </g>
    <g transform="translate(265,75)">
        <use href="#tree-sm" />
    </g>
    <g transform="translate(320,68)">
        <use href="#bush" transform="translate(0,14) scale(1.1)" />
    </g>
    <g transform="translate(445,72)">
        <use href="#bush" transform="translate(0,14)" />
    </g>
    <g transform="translate(500,60)">
        <use href="#tree-sm" transform="scale(1.2)" />
    </g>

    <!-- Bottom edge trees -->
    <g transform="translate(240,755)">
        <use href="#tree" transform="scale(1.1)" />
    </g>
    <g transform="translate(295,768)">
        <use href="#tree-sm" transform="scale(1.2)" />
    </g>
    <g transform="translate(352,750)">
        <use href="#tree" transform="scale(1.0)" />
    </g>
    <g transform="translate(410,765)">
        <use href="#tree-sm" transform="scale(1.1)" />
    </g>
    <g transform="translate(468,752)">
        <use href="#tree" transform="scale(1.2)" />
    </g>
    <g transform="translate(524,768)">
        <use href="#tree-sm" transform="scale(1.0)" />
    </g>
    <g transform="translate(570,750)">
        <use href="#tree" transform="scale(1.1)" />
    </g>
    <g transform="translate(270,730)">
        <use href="#bush" transform="translate(0,14)" />
    </g>
    <g transform="translate(445,728)">
        <use href="#tree-sm" />
    </g>
    <g transform="translate(500,740)">
        <use href="#bush" transform="translate(0,14) scale(1.1)" />
    </g>

    <!-- Left edge trees -->
    <g transform="translate(48,235)">
        <use href="#tree" transform="scale(1.1)" />
    </g>
    <g transform="translate(35,285)">
        <use href="#tree-sm" transform="scale(1.2)" />
    </g>
    <g transform="translate(55,340)">
        <use href="#tree" transform="scale(1.0)" />
    </g>
    <g transform="translate(40,395)">
        <use href="#tree-sm" transform="scale(1.1)" />
    </g>
    <g transform="translate(52,450)">
        <use href="#tree" transform="scale(1.2)" />
    </g>
    <g transform="translate(38,505)">
        <use href="#tree-sm" transform="scale(1.0)" />
    </g>
    <g transform="translate(58,558)">
        <use href="#tree" transform="scale(1.1)" />
    </g>
    <g transform="translate(75,260)">
        <use href="#bush" transform="translate(0,14)" />
    </g>
    <g transform="translate(70,420)">
        <use href="#bush" transform="translate(0,14) scale(1.1)" />
    </g>
    <g transform="translate(72,580)">
        <use href="#tree-sm" />
    </g>

    <!-- Right edge trees -->
    <g transform="translate(745,238)">
        <use href="#tree" transform="scale(1.1)" />
    </g>
    <g transform="translate(760,288)">
        <use href="#tree-sm" transform="scale(1.2)" />
    </g>
    <g transform="translate(748,344)">
        <use href="#tree" transform="scale(1.0)" />
    </g>
    <g transform="translate(762,398)">
        <use href="#tree-sm" transform="scale(1.1)" />
    </g>
    <g transform="translate(746,454)">
        <use href="#tree" transform="scale(1.2)" />
    </g>
    <g transform="translate(758,508)">
        <use href="#tree-sm" transform="scale(1.0)" />
    </g>
    <g transform="translate(742,562)">
        <use href="#tree" transform="scale(1.1)" />
    </g>
    <g transform="translate(720,265)">
        <use href="#bush" transform="translate(0,14)" />
    </g>
    <g transform="translate(722,428)">
        <use href="#bush" transform="translate(0,14) scale(1.1)" />
    </g>
    <g transform="translate(718,590)">
        <use href="#tree-sm" />
    </g>

    <!-- Rocks scattered on edges -->
    <g transform="translate(195,85)">
        <use href="#rock" />
    </g>
    <g transform="translate(595,85)">
        <use href="#rock" transform="scale(1.2)" />
    </g>
    <g transform="translate(85,205)">
        <use href="#rock" transform="scale(1.1)" />
    </g>
    <g transform="translate(85,600)">
        <use href="#rock" />
    </g>
    <g transform="translate(200,715)">
        <use href="#rock" transform="scale(1.2)" />
    </g>
    <g transform="translate(600,715)">
        <use href="#rock" />
    </g>
    <g transform="translate(715,205)">
        <use href="#rock" transform="scale(1.1)" />
    </g>
    <g transform="translate(715,600)">
        <use href="#rock" transform="scale(1.2)" />
    </g>

    <!-- ── Border transition strip (inner ring before grass field) ── -->
    <rect x="145" y="145" width="510" height="510" rx="6" ry="6" fill="#4a8e22" filter="url(#fieldShadow)" />

    <!-- ── Inner grass field (the "base" area where buildings go) ── -->
    <rect x="165" y="165" width="470" height="470" rx="4" ry="4" fill="url(#grassCheck)" />

    <!-- Subtle inner shadow / vignette on field edges -->
    <rect x="165" y="165" width="470" height="470" rx="4" ry="4" fill="none" stroke="#3d8818" stroke-width="3" />

    <!-- Faint grid lines on the inner field (9 columns, 9 rows) -->
    <!-- Vertical lines at ~52px intervals (470/9 ≈ 52) -->
    <g stroke="#6aaa33" stroke-width="0.6" opacity="0.5">
        <line x1="217" y1="165" x2="217" y2="635" />
        <line x1="269" y1="165" x2="269" y2="635" />
        <line x1="321" y1="165" x2="321" y2="635" />
        <line x1="373" y1="165" x2="373" y2="635" />
        <line x1="425" y1="165" x2="425" y2="635" />
        <line x1="477" y1="165" x2="477" y2="635" />
        <line x1="529" y1="165" x2="529" y2="635" />
        <line x1="581" y1="165" x2="581" y2="635" />
        <!-- Horizontal -->
        <line x1="165" y1="217" x2="635" y2="217" />
        <line x1="165" y1="269" x2="635" y2="269" />
        <line x1="165" y1="321" x2="635" y2="321" />
        <line x1="165" y1="373" x2="635" y2="373" />
        <line x1="165" y1="425" x2="635" y2="425" />
        <line x1="165" y1="477" x2="635" y2="477" />
        <line x1="165" y1="529" x2="635" y2="529" />
        <line x1="165" y1="581" x2="635" y2="581" />
    </g>

    <!-- Decorative bushes/flowers at field border -->
    <g transform="translate(165,165)">
        <use href="#bush" transform="translate(0,18) scale(0.7)" />
    </g>
    <g transform="translate(635,165)">
        <use href="#bush" transform="translate(0,18) scale(0.7)" />
    </g>
    <g transform="translate(165,635)">
        <use href="#bush" transform="translate(0,18) scale(0.7)" />
    </g>
    <g transform="translate(635,635)">
        <use href="#bush" transform="translate(0,18) scale(0.7)" />
    </g>
    <g transform="translate(400,165)">
        <use href="#bush" transform="translate(0,18) scale(0.65)" />
    </g>
    <g transform="translate(165,400)">
        <use href="#bush" transform="translate(0,18) scale(0.65)" />
    </g>
    <g transform="translate(635,400)">
        <use href="#bush" transform="translate(0,18) scale(0.65)" />
    </g>
    <g transform="translate(400,635)">
        <use href="#bush" transform="translate(0,18) scale(0.65)" />
    </g>

    <!-- Small rocks at field corners for visual interest -->
    <g transform="translate(178,180)">
        <use href="#rock" transform="scale(0.7)" />
    </g>
    <g transform="translate(618,180)">
        <use href="#rock" transform="scale(0.7)" />
    </g>
    <g transform="translate(178,620)">
        <use href="#rock" transform="scale(0.7)" />
    </g>
    <g transform="translate(618,620)">
        <use href="#rock" transform="scale(0.7)" />
    </g>
</svg>