<svg xmlns="http://www.w3.org/2000/svg" viewBox="0 0 256 256" width="256" height="256" role="img" aria-label="Archer Tower">
	<defs>
		<linearGradient id="sky" x1="0" y1="0" x2="0" y2="1">
			<stop offset="0%" stop-color="#9fd2ff"/>
			<stop offset="100%" stop-color="#dcefff"/>
		</linearGradient>
		<linearGradient id="stone" x1="0" y1="0" x2="1" y2="1">
			<stop offset="0%" stop-color="#c8cdd5"/>
			<stop offset="100%" stop-color="#8e96a3"/>
		</linearGradient>
	</defs>

	<rect width="256" height="256" fill="url(#sky)"/>
	<rect y="196" width="256" height="60" fill="#77a868"/>

	<rect x="88" y="72" width="80" height="136" rx="7" fill="url(#stone)" stroke="#5f6672" stroke-width="4"/>
	<rect x="76" y="58" width="104" height="20" rx="4" fill="#6b7280" stroke="#4b5563" stroke-width="3"/>

	<rect x="92" y="88" width="18" height="24" fill="#2f3640"/>
	<rect x="119" y="88" width="18" height="24" fill="#2f3640"/>
	<rect x="146" y="88" width="18" height="24" fill="#2f3640"/>

	<rect x="117" y="134" width="22" height="48" rx="3" fill="#4b2e1e" stroke="#2e1c12" stroke-width="3"/>

	<path d="M58 208h140" stroke="#2f5d31" stroke-width="6"/>

	<path d="M48 72l18-18m0 0l12 12m-12-12l-2 20" stroke="#5a3b28" stroke-width="4" fill="none" stroke-linecap="round"/>
	<path d="M206 84l-20-20m0 0l-10 12m10-12l1 21" stroke="#5a3b28" stroke-width="4" fill="none" stroke-linecap="round"/>
</svg>